# 3ds Max Wavefront OBJ Exporter v0.99 - (c)2007 guruware
# File Created: 15.07.2025 23:35:52

mtllib Doubloon.mtl

#
# object Doubloon
#

v  1.2019 0.0153 -0.3905
v  1.2637 0.0153 -0.0000
v  1.2211 0.0123 0.0000
v  1.1613 0.0123 -0.3773
v  1.2019 0.0153 0.3905
v  1.1613 0.0123 0.3773
v  1.0224 0.0153 0.7428
v  0.9879 0.0123 0.7177
v  0.7428 0.0153 1.0224
v  0.7177 0.0123 0.9879
v  0.3905 0.0153 1.2019
v  0.3773 0.0123 1.1613
v  0.0000 0.0153 1.2637
v  0.0000 0.0123 1.2211
v  -0.3905 0.0153 1.2019
v  -0.3773 0.0123 1.1613
v  -0.7428 0.0153 1.0224
v  -0.7177 0.0123 0.9879
v  -1.0224 0.0153 0.7428
v  -0.9879 0.0123 0.7177
v  -1.2019 0.0153 0.3905
v  -1.1613 0.0123 0.3773
v  -1.2637 0.0153 0.0000
v  -1.2211 0.0123 0.0000
v  -1.2019 0.0153 -0.3905
v  -1.1613 0.0123 -0.3773
v  -1.0224 0.0153 -0.7428
v  -0.9879 0.0123 -0.7177
v  -0.7428 0.0153 -1.0224
v  -0.7177 0.0123 -0.9879
v  -0.3905 0.0153 -1.2019
v  -0.3773 0.0123 -1.1613
v  -0.0000 0.0153 -1.2637
v  -0.0000 0.0123 -1.2211
v  0.3905 0.0153 -1.2019
v  0.3773 0.0123 -1.1613
v  0.7428 0.0153 -1.0224
v  0.7177 0.0123 -0.9879
v  1.0224 0.0153 -0.7428
v  0.9879 0.0123 -0.7177
v  1.2637 0.1975 -0.0000
v  1.2019 0.1975 -0.3905
v  1.1502 0.1938 -0.3737
v  1.2094 0.1938 0.0000
v  1.0224 0.1975 -0.7428
v  0.9784 0.1938 -0.7109
v  0.7428 0.1975 -1.0224
v  0.7109 0.1938 -0.9784
v  0.3905 0.1975 -1.2019
v  0.3737 0.1938 -1.1502
v  -0.0000 0.1975 -1.2637
v  -0.0000 0.1938 -1.2094
v  -0.3905 0.1975 -1.2019
v  -0.3737 0.1938 -1.1502
v  -0.7428 0.1975 -1.0224
v  -0.7109 0.1938 -0.9784
v  -1.0224 0.1975 -0.7428
v  -0.9784 0.1938 -0.7109
v  -1.2019 0.1975 -0.3905
v  -1.1502 0.1938 -0.3737
v  -1.2637 0.1975 0.0000
v  -1.2094 0.1938 0.0000
v  -1.2019 0.1975 0.3905
v  -1.1502 0.1938 0.3737
v  -1.0224 0.1975 0.7428
v  -0.9784 0.1938 0.7109
v  -0.7428 0.1975 1.0224
v  -0.7109 0.1938 0.9784
v  -0.3905 0.1975 1.2019
v  -0.3737 0.1938 1.1502
v  0.0000 0.1975 1.2637
v  0.0000 0.1938 1.2094
v  0.3905 0.1975 1.2019
v  0.3737 0.1938 1.1502
v  0.7428 0.1975 1.0224
v  0.7109 0.1938 0.9784
v  1.0224 0.1975 0.7428
v  0.9784 0.1938 0.7109
v  1.2019 0.1975 0.3905
v  1.1502 0.1938 0.3737
v  1.1613 0.1685 -0.3773
v  1.2211 0.1685 0.0000
v  0.9879 0.1685 -0.7177
v  0.7177 0.1685 -0.9879
v  0.3773 0.1685 -1.1613
v  -0.0000 0.1685 -1.2211
v  -0.3773 0.1685 -1.1613
v  -0.7177 0.1685 -0.9879
v  -0.9879 0.1685 -0.7177
v  -1.1613 0.1685 -0.3773
v  -1.2211 0.1685 0.0000
v  -1.1613 0.1685 0.3773
v  -0.9879 0.1685 0.7177
v  -0.7177 0.1685 0.9879
v  -0.3773 0.1685 1.1613
v  0.0000 0.1685 1.2211
v  0.3773 0.1685 1.1613
v  0.7177 0.1685 0.9879
v  0.9879 0.1685 0.7177
v  1.1613 0.1685 0.3773
v  1.2211 0.0421 0.0000
v  1.1613 0.0421 -0.3773
v  1.1613 0.0421 0.3773
v  0.9879 0.0421 0.7177
v  0.7177 0.0421 0.9879
v  0.3773 0.0421 1.1613
v  0.0000 0.0421 1.2211
v  -0.3773 0.0421 1.1613
v  -0.7177 0.0421 0.9879
v  -0.9879 0.0421 0.7177
v  -1.1613 0.0421 0.3773
v  -1.2211 0.0421 0.0000
v  -1.1613 0.0421 -0.3773
v  -0.9879 0.0421 -0.7177
v  -0.7177 0.0421 -0.9879
v  -0.3773 0.0421 -1.1613
v  -0.0000 0.0421 -1.2211
v  0.3773 0.0421 -1.1613
v  0.7177 0.0421 -0.9879
v  0.9879 0.0421 -0.7177
v  0.0000 0.1685 -0.0000
v  0.0000 0.0421 -0.0000
# 122 vertices

vn 0.7229 -0.6499 -0.2349
vn 0.7601 -0.6498 -0.0000
vn -0.6390 -0.7692 -0.0000
vn -0.6076 -0.7693 0.1974
vn 0.7229 -0.6498 0.2349
vn -0.6075 -0.7694 -0.1974
vn 0.6149 -0.6498 0.4468
vn -0.5168 -0.7693 -0.3755
vn 0.4468 -0.6498 0.6149
vn -0.3755 -0.7693 -0.5169
vn 0.2349 -0.6498 0.7229
vn -0.1974 -0.7693 -0.6076
vn 0.0000 -0.6499 0.7601
vn -0.0000 -0.7693 -0.6389
vn -0.2349 -0.6498 0.7229
vn 0.1974 -0.7693 -0.6076
vn -0.4467 -0.6499 0.6149
vn 0.3755 -0.7693 -0.5169
vn -0.6149 -0.6498 0.4468
vn 0.5169 -0.7693 -0.3755
vn -0.7229 -0.6499 0.2349
vn 0.6076 -0.7693 -0.1974
vn -0.7601 -0.6499 -0.0000
vn 0.6389 -0.7693 -0.0000
vn -0.7229 -0.6499 -0.2349
vn 0.6076 -0.7693 0.1974
vn -0.6149 -0.6499 -0.4467
vn 0.5169 -0.7692 0.3756
vn -0.4467 -0.6499 -0.6149
vn 0.3756 -0.7692 0.5169
vn -0.2349 -0.6498 -0.7229
vn 0.1974 -0.7693 0.6076
vn -0.0000 -0.6498 -0.7601
vn 0.0000 -0.7693 0.6389
vn 0.2349 -0.6498 -0.7229
vn -0.1974 -0.7693 0.6076
vn 0.4467 -0.6499 -0.6149
vn -0.3755 -0.7693 0.5169
vn 0.6149 -0.6499 -0.4467
vn -0.5169 -0.7693 0.3755
vn 0.7178 0.6963 -0.0000
vn 0.6826 0.6963 -0.2218
vn -0.7951 0.5487 0.2583
vn -0.8360 0.5487 0.0000
vn 0.5806 0.6964 -0.4218
vn -0.6763 0.5487 0.4914
vn 0.4219 0.6963 -0.5807
vn -0.4914 0.5487 0.6763
vn 0.2218 0.6963 -0.6826
vn -0.2583 0.5487 0.7951
vn -0.0000 0.6963 -0.7178
vn 0.0000 0.5487 0.8360
vn -0.2218 0.6963 -0.6826
vn 0.2583 0.5487 0.7951
vn -0.4219 0.6963 -0.5807
vn 0.4914 0.5487 0.6763
vn -0.5806 0.6964 -0.4218
vn 0.6763 0.5487 0.4914
vn -0.6826 0.6963 -0.2218
vn 0.7951 0.5487 0.2583
vn -0.7178 0.6963 0.0000
vn 0.8360 0.5487 -0.0000
vn -0.6826 0.6963 0.2218
vn 0.7951 0.5487 -0.2583
vn -0.5807 0.6963 0.4219
vn 0.6763 0.5487 -0.4914
vn -0.4219 0.6963 0.5807
vn 0.4914 0.5487 -0.6763
vn -0.2218 0.6963 0.6826
vn 0.2583 0.5487 -0.7951
vn 0.0000 0.6963 0.7178
vn -0.0000 0.5487 -0.8360
vn 0.2218 0.6963 0.6826
vn -0.2583 0.5487 -0.7951
vn 0.4219 0.6963 0.5807
vn -0.4914 0.5487 -0.6763
vn 0.5807 0.6963 0.4219
vn -0.6763 0.5487 -0.4914
vn 0.6826 0.6963 0.2218
vn -0.7951 0.5487 -0.2583
vn -0.8217 0.5036 0.2670
vn -0.8640 0.5036 0.0000
vn -0.6990 0.5036 0.5078
vn -0.5078 0.5036 0.6990
vn -0.2670 0.5036 0.8217
vn 0.0000 0.5036 0.8640
vn 0.2670 0.5036 0.8217
vn 0.5078 0.5036 0.6990
vn 0.6990 0.5036 0.5078
vn 0.8217 0.5036 0.2670
vn 0.8640 0.5036 -0.0000
vn 0.8217 0.5036 -0.2670
vn 0.6990 0.5036 -0.5078
vn 0.5078 0.5036 -0.6990
vn 0.2670 0.5036 -0.8217
vn -0.0000 0.5036 -0.8640
vn -0.2670 0.5036 -0.8217
vn -0.5078 0.5036 -0.6990
vn -0.6990 0.5036 -0.5078
vn -0.8217 0.5036 -0.2670
vn -0.7392 -0.6735 0.0000
vn -0.7030 -0.6735 0.2284
vn -0.7030 -0.6735 -0.2284
vn -0.5980 -0.6735 -0.4345
vn -0.4345 -0.6736 -0.5980
vn -0.2284 -0.6736 -0.7029
vn -0.0000 -0.6735 -0.7392
vn 0.2284 -0.6735 -0.7030
vn 0.4345 -0.6735 -0.5980
vn 0.5980 -0.6735 -0.4345
vn 0.7030 -0.6735 -0.2284
vn 0.7391 -0.6736 -0.0000
vn 0.7029 -0.6736 0.2284
vn 0.5980 -0.6735 0.4345
vn 0.4345 -0.6735 0.5980
vn 0.2284 -0.6736 0.7029
vn -0.0000 -0.6736 0.7391
vn -0.2284 -0.6735 0.7030
vn -0.4344 -0.6736 0.5980
vn -0.5980 -0.6736 0.4344
vn 0.0000 1.0000 -0.0000
vn 0.0000 -1.0000 -0.0000
# 122 vertex normals

vt 0.6997 0.9860 0.0000
vt 0.7497 0.9857 0.0000
vt 0.7497 0.9910 0.0000
vt 0.6998 0.9913 0.0000
vt 0.7996 0.9855 0.0000
vt 0.7997 0.9909 0.0000
vt 0.8496 0.9852 0.0000
vt 0.8497 0.9906 0.0000
vt 0.8996 0.9848 0.0000
vt 0.8996 0.9902 0.0000
vt 0.9495 0.9842 0.0000
vt 0.9495 0.9896 0.0000
vt 1.0000 0.9838 0.0000
vt 0.9991 0.9892 0.0000
vt 0.0002 0.9844 0.0000
vt 0.0502 0.9844 0.0000
vt 0.0503 0.9898 0.0000
vt 0.0012 0.9899 0.0000
vt 0.1002 0.9849 0.0000
vt 0.1002 0.9903 0.0000
vt 0.1502 0.9852 0.0000
vt 0.1502 0.9906 0.0000
vt 0.2001 0.9855 0.0000
vt 0.2001 0.9909 0.0000
vt 0.2501 0.9857 0.0000
vt 0.2501 0.9911 0.0000
vt 0.3001 0.9859 0.0000
vt 0.3001 0.9913 0.0000
vt 0.3500 0.9861 0.0000
vt 0.3500 0.9915 0.0000
vt 0.4000 0.9862 0.0000
vt 0.4000 0.9916 0.0000
vt 0.4499 0.9863 0.0000
vt 0.4499 0.9916 0.0000
vt 0.4999 0.9863 0.0000
vt 0.4999 0.9917 0.0000
vt 0.5498 0.9863 0.0000
vt 0.5499 0.9917 0.0000
vt 0.5998 0.9862 0.0000
vt 0.5998 0.9916 0.0000
vt 0.6498 0.9862 0.0000
vt 0.6498 0.9915 0.0000
vt 0.7496 0.9623 0.0000
vt 0.6996 0.9626 0.0000
vt 0.6996 0.9559 0.0000
vt 0.7495 0.9554 0.0000
vt 0.6497 0.9629 0.0000
vt 0.6497 0.9560 0.0000
vt 0.5998 0.9629 0.0000
vt 0.5998 0.9561 0.0000
vt 0.5498 0.9630 0.0000
vt 0.5498 0.9561 0.0000
vt 0.4999 0.9630 0.0000
vt 0.4999 0.9561 0.0000
vt 0.4500 0.9629 0.0000
vt 0.4500 0.9561 0.0000
vt 0.4000 0.9629 0.0000
vt 0.4000 0.9560 0.0000
vt 0.3501 0.9628 0.0000
vt 0.3501 0.9559 0.0000
vt 0.3002 0.9626 0.0000
vt 0.3002 0.9557 0.0000
vt 0.2502 0.9624 0.0000
vt 0.2502 0.9556 0.0000
vt 0.2003 0.9622 0.0000
vt 0.2003 0.9553 0.0000
vt 0.1503 0.9619 0.0000
vt 0.1504 0.9550 0.0000
vt 0.1004 0.9616 0.0000
vt 0.1005 0.9547 0.0000
vt 0.0505 0.9613 0.0000
vt 0.0506 0.9545 0.0000
vt 0.0000 0.9607 0.0000
vt 0.0013 0.9537 0.0000
vt 0.9994 0.9601 0.0000
vt 0.9494 0.9611 0.0000
vt 0.9492 0.9543 0.0000
vt 0.9981 0.9532 0.0000
vt 0.8994 0.9615 0.0000
vt 0.8993 0.9546 0.0000
vt 0.8494 0.9619 0.0000
vt 0.8494 0.9550 0.0000
vt 0.7995 0.9621 0.0000
vt 0.7995 0.9553 0.0000
vt 0.9560 0.1853 0.0000
vt 0.9595 0.1849 0.0000
vt 0.9627 0.2335 0.0000
vt 0.9592 0.2335 0.0000
vt 0.9466 0.1380 0.0000
vt 0.9500 0.1371 0.0000
vt 0.9310 0.0924 0.0000
vt 0.9343 0.0910 0.0000
vt 0.9096 0.0492 0.0000
vt 0.9126 0.0474 0.0000
vt 0.8826 0.0091 0.0000
vt 0.8855 0.0069 0.0000
vt 0.9256 0.4178 0.0000
vt 0.9287 0.4196 0.0000
vt 0.9015 0.4600 0.0000
vt 0.8987 0.4578 0.0000
vt 0.9471 0.3746 0.0000
vt 0.9504 0.3759 0.0000
vt 0.9627 0.3289 0.0000
vt 0.9661 0.3298 0.0000
vt 0.9721 0.2816 0.0000
vt 0.9756 0.2821 0.0000
vt 0.9753 0.2335 0.0000
vt 0.9788 0.2335 0.0000
vt 0.9721 0.1853 0.0000
vt 0.9756 0.1849 0.0000
vt 0.9627 0.1380 0.0000
vt 0.9661 0.1371 0.0000
vt 0.9471 0.0924 0.0000
vt 0.9504 0.0910 0.0000
vt 0.9256 0.0492 0.0000
vt 0.9287 0.0474 0.0000
vt 0.8987 0.0091 0.0000
vt 0.9015 0.0069 0.0000
vt 0.9096 0.4178 0.0000
vt 0.9126 0.4196 0.0000
vt 0.8855 0.4600 0.0000
vt 0.8827 0.4578 0.0000
vt 0.9310 0.3746 0.0000
vt 0.9343 0.3759 0.0000
vt 0.9466 0.3289 0.0000
vt 0.9500 0.3298 0.0000
vt 0.9560 0.2816 0.0000
vt 0.9595 0.2821 0.0000
vt 0.9796 0.2505 0.0000
vt 0.9834 0.2505 0.0000
vt 0.9834 0.2992 0.0000
vt 0.9796 0.2992 0.0000
vt 0.9796 0.2018 0.0000
vt 0.9834 0.2018 0.0000
vt 0.9796 0.1531 0.0000
vt 0.9834 0.1531 0.0000
vt 0.9796 0.1044 0.0000
vt 0.9834 0.1044 0.0000
vt 0.9796 0.0557 0.0000
vt 0.9834 0.0557 0.0000
vt 0.9796 0.0069 0.0000
vt 0.9834 0.0069 0.0000
vt 0.9883 0.0557 0.0000
vt 0.9845 0.0557 0.0000
vt 0.9845 0.0069 0.0000
vt 0.9883 0.0069 0.0000
vt 0.9883 0.1044 0.0000
vt 0.9845 0.1044 0.0000
vt 0.9883 0.1531 0.0000
vt 0.9845 0.1531 0.0000
vt 0.9883 0.2018 0.0000
vt 0.9845 0.2018 0.0000
vt 0.9883 0.2505 0.0000
vt 0.9845 0.2505 0.0000
vt 0.9883 0.2992 0.0000
vt 0.9845 0.2992 0.0000
vt 0.9883 0.3479 0.0000
vt 0.9845 0.3479 0.0000
vt 0.9883 0.3966 0.0000
vt 0.9845 0.3966 0.0000
vt 0.9883 0.4453 0.0000
vt 0.9845 0.4453 0.0000
vt 0.9883 0.4940 0.0000
vt 0.9845 0.4940 0.0000
vt 0.9796 0.4453 0.0000
vt 0.9834 0.4453 0.0000
vt 0.9834 0.4940 0.0000
vt 0.9796 0.4940 0.0000
vt 0.9796 0.3966 0.0000
vt 0.9834 0.3966 0.0000
vt 0.9796 0.3479 0.0000
vt 0.9834 0.3479 0.0000
vt 0.9473 0.7588 0.0000
vt 0.9101 0.8318 0.0000
vt 0.8521 0.8897 0.0000
vt 0.6982 0.6779 0.0000
vt 0.7791 0.9269 0.0000
vt 0.6982 0.9397 0.0000
vt 0.6173 0.9269 0.0000
vt 0.5443 0.8897 0.0000
vt 0.4863 0.8318 0.0000
vt 0.4492 0.7588 0.0000
vt 0.4363 0.6779 0.0000
vt 0.4492 0.5969 0.0000
vt 0.4863 0.5239 0.0000
vt 0.5443 0.4660 0.0000
vt 0.6173 0.4288 0.0000
vt 0.6982 0.4160 0.0000
vt 0.7791 0.4288 0.0000
vt 0.8521 0.4660 0.0000
vt 0.9101 0.5239 0.0000
vt 0.9473 0.5969 0.0000
vt 0.9601 0.6779 0.0000
vt 0.0468 0.3597 0.0000
vt 0.0340 0.2788 0.0000
vt 0.0468 0.1979 0.0000
vt 0.2958 0.2788 0.0000
vt 0.0840 0.1249 0.0000
vt 0.1419 0.0670 0.0000
vt 0.2149 0.0298 0.0000
vt 0.2958 0.0170 0.0000
vt 0.3768 0.0298 0.0000
vt 0.4498 0.0670 0.0000
vt 0.5077 0.1249 0.0000
vt 0.5449 0.1979 0.0000
vt 0.5577 0.2788 0.0000
vt 0.5449 0.3597 0.0000
vt 0.5077 0.4327 0.0000
vt 0.4498 0.4907 0.0000
vt 0.3768 0.5279 0.0000
vt 0.2958 0.5407 0.0000
vt 0.2149 0.5279 0.0000
vt 0.1419 0.4907 0.0000
vt 0.0840 0.4327 0.0000
# 214 texture coords

o Doubloon
g Doubloon
usemtl wire_097074059
s 1
f 1/1/1 2/2/2 3/3/3 4/4/4 
f 2/2/2 5/5/5 6/6/6 3/3/3 
f 5/5/5 7/7/7 8/8/8 6/6/6 
f 7/7/7 9/9/9 10/10/10 8/8/8 
f 9/9/9 11/11/11 12/12/12 10/10/10 
f 11/11/11 13/13/13 14/14/14 12/12/12 
f 13/15/13 15/16/15 16/17/16 14/18/14 
f 15/16/15 17/19/17 18/20/18 16/17/16 
f 17/19/17 19/21/19 20/22/20 18/20/18 
f 19/21/19 21/23/21 22/24/22 20/22/20 
f 21/23/21 23/25/23 24/26/24 22/24/22 
f 23/25/23 25/27/25 26/28/26 24/26/24 
f 25/27/25 27/29/27 28/30/28 26/28/26 
f 27/29/27 29/31/29 30/32/30 28/30/28 
f 29/31/29 31/33/31 32/34/32 30/32/30 
f 31/33/31 33/35/33 34/36/34 32/34/32 
f 33/35/33 35/37/35 36/38/36 34/36/34 
f 35/37/35 37/39/37 38/40/38 36/38/36 
f 37/39/37 39/41/39 40/42/40 38/40/38 
f 39/41/39 1/1/1 4/4/4 40/42/40 
f 41/43/41 42/44/42 43/45/43 44/46/44 
f 42/44/42 45/47/45 46/48/46 43/45/43 
f 45/47/45 47/49/47 48/50/48 46/48/46 
f 47/49/47 49/51/49 50/52/50 48/50/48 
f 49/51/49 51/53/51 52/54/52 50/52/50 
f 51/53/51 53/55/53 54/56/54 52/54/52 
f 53/55/53 55/57/55 56/58/56 54/56/54 
f 55/57/55 57/59/57 58/60/58 56/58/56 
f 57/59/57 59/61/59 60/62/60 58/60/58 
f 59/61/59 61/63/61 62/64/62 60/62/60 
f 61/63/61 63/65/63 64/66/64 62/64/62 
f 63/65/63 65/67/65 66/68/66 64/66/64 
f 65/67/65 67/69/67 68/70/68 66/68/66 
f 67/69/67 69/71/69 70/72/70 68/70/68 
f 69/71/69 71/73/71 72/74/72 70/72/70 
f 71/75/71 73/76/73 74/77/74 72/78/72 
f 73/76/73 75/79/75 76/80/76 74/77/74 
f 75/79/75 77/81/77 78/82/78 76/80/76 
f 77/81/77 79/83/79 80/84/80 78/82/78 
f 79/83/79 41/43/41 44/46/44 80/84/80 
s 2
f 43/85/43 81/86/81 82/87/82 44/88/44 
f 46/89/46 83/90/83 81/86/81 43/85/43 
f 48/91/48 84/92/84 83/90/83 46/89/46 
f 50/93/50 85/94/85 84/92/84 48/91/48 
f 52/95/52 86/96/86 85/94/85 50/93/50 
f 54/97/54 87/98/87 86/99/86 52/100/52 
f 56/101/56 88/102/88 87/98/87 54/97/54 
f 58/103/58 89/104/89 88/102/88 56/101/56 
f 60/105/60 90/106/90 89/104/89 58/103/58 
f 62/107/62 91/108/91 90/106/90 60/105/60 
f 64/109/64 92/110/92 91/108/91 62/107/62 
f 66/111/66 93/112/93 92/110/92 64/109/64 
f 68/113/68 94/114/94 93/112/93 66/111/66 
f 70/115/70 95/116/95 94/114/94 68/113/68 
f 72/117/72 96/118/96 95/116/95 70/115/70 
f 74/119/74 97/120/97 96/121/96 72/122/72 
f 76/123/76 98/124/98 97/120/97 74/119/74 
f 78/125/78 99/126/99 98/124/98 76/123/76 
f 80/127/80 100/128/100 99/126/99 78/125/78 
f 44/88/44 82/87/82 100/128/100 80/127/80 
f 3/129/3 101/130/101 102/131/102 4/132/4 
f 6/133/6 103/134/103 101/130/101 3/129/3 
f 8/135/8 104/136/104 103/134/103 6/133/6 
f 10/137/10 105/138/105 104/136/104 8/135/8 
f 12/139/12 106/140/106 105/138/105 10/137/10 
f 14/141/14 107/142/107 106/140/106 12/139/12 
f 16/143/16 108/144/108 107/145/107 14/146/14 
f 18/147/18 109/148/109 108/144/108 16/143/16 
f 20/149/20 110/150/110 109/148/109 18/147/18 
f 22/151/22 111/152/111 110/150/110 20/149/20 
f 24/153/24 112/154/112 111/152/111 22/151/22 
f 26/155/26 113/156/113 112/154/112 24/153/24 
f 28/157/28 114/158/114 113/156/113 26/155/26 
f 30/159/30 115/160/115 114/158/114 28/157/28 
f 32/161/32 116/162/116 115/160/115 30/159/30 
f 34/163/34 117/164/117 116/162/116 32/161/32 
f 36/165/36 118/166/118 117/167/117 34/168/34 
f 38/169/38 119/170/119 118/166/118 36/165/36 
f 40/171/40 120/172/120 119/170/119 38/169/38 
f 4/132/4 102/131/102 120/172/120 40/171/40 
f 1/1/1 42/44/42 41/43/41 2/2/2 
f 39/41/39 45/47/45 42/44/42 1/1/1 
f 37/39/37 47/49/47 45/47/45 39/41/39 
f 35/37/35 49/51/49 47/49/47 37/39/37 
f 33/35/33 51/53/51 49/51/49 35/37/35 
f 31/33/31 53/55/53 51/53/51 33/35/33 
f 29/31/29 55/57/55 53/55/53 31/33/31 
f 27/29/27 57/59/57 55/57/55 29/31/29 
f 25/27/25 59/61/59 57/59/57 27/29/27 
f 23/25/23 61/63/61 59/61/59 25/27/25 
f 21/23/21 63/65/63 61/63/61 23/25/23 
f 19/21/19 65/67/65 63/65/63 21/23/21 
f 17/19/17 67/69/67 65/67/65 19/21/19 
f 15/16/15 69/71/69 67/69/67 17/19/17 
f 13/15/13 71/73/71 69/71/69 15/16/15 
f 11/11/11 73/76/73 71/75/71 13/13/13 
f 9/9/9 75/79/75 73/76/73 11/11/11 
f 7/7/7 77/81/77 75/79/75 9/9/9 
f 5/5/5 79/83/79 77/81/77 7/7/7 
f 2/2/2 41/43/41 79/83/79 5/5/5 
s off
f 81/173/81 83/174/83 84/175/84 121/176/121 
f 84/175/84 85/177/85 86/178/86 121/176/121 
f 86/178/86 87/179/87 88/180/88 121/176/121 
f 88/180/88 89/181/89 90/182/90 121/176/121 
f 90/182/90 91/183/91 92/184/92 121/176/121 
f 92/184/92 93/185/93 94/186/94 121/176/121 
f 94/186/94 95/187/95 96/188/96 121/176/121 
f 96/188/96 97/189/97 98/190/98 121/176/121 
f 98/190/98 99/191/99 100/192/100 121/176/121 
f 100/192/100 82/193/82 81/173/81 121/176/121 
f 102/194/102 101/195/101 103/196/103 122/197/122 
f 103/196/103 104/198/104 105/199/105 122/197/122 
f 105/199/105 106/200/106 107/201/107 122/197/122 
f 107/201/107 108/202/108 109/203/109 122/197/122 
f 109/203/109 110/204/110 111/205/111 122/197/122 
f 111/205/111 112/206/112 113/207/113 122/197/122 
f 113/207/113 114/208/114 115/209/115 122/197/122 
f 115/209/115 116/210/116 117/211/117 122/197/122 
f 117/211/117 118/212/118 119/213/119 122/197/122 
f 119/213/119 120/214/120 102/194/102 122/197/122 
# 120 polygons

